HIERARCHY
ROOT Hips
{
  OFFSET 196.326 95.9168 97.7182
  CHANNELS 6 Xposition Yposition Zposition Zrotation Xrotation Yrotation
  JOINT LeftUpLeg
  {
    OFFSET 8.64259 1.95398 -2.38835
    CHANNELS 3 Zrotation Xrotation Yrotation
    JOINT LeftLeg
    {
      OFFSET 43.7702 0 0
      CHANNELS 3 Zrotation Xrotation Yrotation
      JOINT LeftFoot
      {
        OFFSET 40.6238 0 0
        CHANNELS 3 Zrotation Xrotation Yrotation
        JOINT LeftToeBase
        {
          OFFSET 12.7242 0 0
          CHANNELS 3 Zrotation Xrotation Yrotation
          End Site
          {
            OFFSET 0 0 0
          }
        }
      }
    }
  }
  JOINT RightUpLeg
  {
    OFFSET -8.2249 1.95398 -2.59336
    CHANNELS 3 Zrotation Xrotation Yrotation
    JOINT RightLeg
    {
      OFFSET 43.5653 0 0
      CHANNELS 3 Zrotation Xrotation Yrotation
      JOINT RightFoot
      {
        OFFSET 40.6238 0 0
        CHANNELS 3 Zrotation Xrotation Yrotation
        JOINT RightToeBase
        {
          OFFSET 12.7242 0 0
          CHANNELS 3 Zrotation Xrotation Yrotation
          End Site
          {
            OFFSET 0 0 0
          }
        }
      }
    }
  }
  JOINT Spine
  {
    OFFSET 0.165834 0.87714 6.61349
    CHANNELS 3 Zrotation Xrotation Yrotation
    JOINT Spine1
    {
      OFFSET 7.38963 1.71661e-005 0
      CHANNELS 3 Zrotation Xrotation Yrotation
      JOINT Spine2
      {
        OFFSET 11.9445 1.14441e-005 0
        CHANNELS 3 Zrotation Xrotation Yrotation
        JOINT Spine3
        {
          OFFSET 14.7254 4.19617e-005 0
          CHANNELS 3 Zrotation Xrotation Yrotation
          JOINT Spine4
          {
            OFFSET 10.9679 0 0
            CHANNELS 3 Zrotation Xrotation Yrotation
            JOINT RightShoulder
            {
              OFFSET 2.46616 -1.6653 3.69651
              CHANNELS 3 Zrotation Xrotation Yrotation
              JOINT RightArm
              {
                OFFSET 13.0012 0 0
                CHANNELS 3 Zrotation Xrotation Yrotation
                JOINT RightForeArm
                {
                  OFFSET 28.7848 1.52588e-005 0
                  CHANNELS 3 Zrotation Xrotation Yrotation
                  JOINT RightHand
                  {
                    OFFSET 26.5688 1.52588e-005 0
                    CHANNELS 3 Zrotation Xrotation Yrotation
                    End Site
                    {
                      OFFSET 0 0 0
                    }
                  }
                }
              }
            }
            JOINT LeftShoulder
            {
              OFFSET 2.38034 -1.29275 -3.75231
              CHANNELS 3 Zrotation Xrotation Yrotation
              JOINT LeftArm
              {
                OFFSET 16.3182 6.10351e-005 0
                CHANNELS 3 Zrotation Xrotation Yrotation
                JOINT LeftForeArm
                {
                  OFFSET 27.0901 0 0
                  CHANNELS 3 Zrotation Xrotation Yrotation
                  JOINT LeftHand
                  {
                    OFFSET 24.5451 1.52588e-005 0
                    CHANNELS 3 Zrotation Xrotation Yrotation
                    End Site
                    {
                      OFFSET 0 0 0
                    }
                  }
                }
              }
            }
            JOINT Neck
            {
              OFFSET 5.0226 -0.0266342 0
              CHANNELS 3 Zrotation Xrotation Yrotation
              JOINT Head
              {
                OFFSET 6.69363 2.86102e-005 0
                CHANNELS 3 Zrotation Xrotation Yrotation
                End Site
                {
                  OFFSET 0 0 0
                }
              }
            }
          }
        }
      }
    }
  }
}
MOTION
Frames:	17
Frame Time:	0.0416667
287.702 85.6684 202.08 81.4337 -54.5819 77.7594 -161.163 44.373 89.6311 -45.7175 74.1824 -22.1038 65.8124 21.549 54.0342 10.6348 -31.5443 18.7827 -171.156 29.2365 88.6458 -73.5167 15.2931 -11.7921 70.9659 -0.0999564 -1.93265 70.2032 6.85379 13.588 0.130311 7.60526 -89.6996 11.6621 0.400126 0.556959 -0.00893149 0.424243 0.538809 -22.5433 0.214246 0.651467 -2.53066 0.214226 0.651451 82.5339 -47.5433 -113.032 23.9315 -8.4744 20.9353 -15.5008 -5.44763 -68.0823 -15.4936 -1.13413 3.63799 -98.9282 -41.3723 62.241 -43.8314 3.60834 28.7719 -10.9665 -11.9193 -56.2142 35.0825 1.34321 -0.14254 14.2785 0.716405 1.8839 -1.46764 0.384483 3.9708 
281.629 86.8062 198.181 81.1643 -53.5953 76.864 -160.367 40.8642 87.4047 -55.8147 73.0899 -19.9821 62.19 26.4098 59.8926 9.72348 -33.295 19.2937 -172.645 33.7902 89.2718 -70.7868 21.1727 -10.5751 76.6727 -3.63088 -3.39397 55.1112 6.00805 24.1578 -0.0304244 7.65516 -89.6329 11.5629 0.111335 0.719997 -0.108197 0.142933 0.714401 -22.6418 -0.11019 0.720177 -2.62918 -0.11018 0.720185 81.3132 -48.528 -114.512 24.7964 -8.70736 21.2911 -13.6165 -9.43923 -57.6881 -13.4119 -1.06026 4.20694 -99.892 -42.0091 60.996 -38.9191 3.19801 23.919 -10.984 -12.4043 -55.8013 37.6346 1.62942 0.354968 13.5631 1.31059 1.93662 -0.297431 1.02218 4.3171 
276.942 88.0092 195.129 79.0533 -52.37 76.2275 -160.444 37.5578 86.19 -68.479 66.9449 -14.127 57.3783 29.3749 65.0661 -12.8046 -48.5517 0.184946 -171.407 37.3714 90.4444 -68.4076 18.5175 -9.81646 75.7581 -6.11645 -3.46132 47.0317 2.78952 17.6205 -0.132578 7.62051 -89.8178 11.6332 -0.178226 0.381745 -0.0377935 -0.16125 0.389223 -22.5727 -0.284728 0.310545 -2.56001 -0.284715 0.310535 81.5079 -49.2024 -113.958 25.8067 -10.984 21.0167 -11.2834 -14.6216 -47.3005 -10.0701 -0.866902 4.57373 -102.216 -43.5774 58.091 -32.7382 1.97327 18.7031 -9.19275 -11.1698 -56.6836 38.4152 1.76291 0.612478 15.5158 2.12357 2.44005 -0.42966 1.65145 4.64355 
272.701 90.0412 192.279 79.3153 -51.7997 77.571 -159.971 32.8681 85.0492 -78.7093 48.6552 -6.35516 58.9914 33.5939 58.9764 -87.8757 -53.9644 -62.8796 -171.405 37.9671 91.5559 -62.2327 18.2932 -8.77646 68.1544 -5.75118 -2.95982 50.1864 3.26908 15.3175 -0.327007 7.67738 -89.9251 11.5198 -0.615485 0.212025 -0.150998 -0.605575 0.238904 -22.6873 -0.650769 0.0172375 -2.67469 -0.650759 0.0172356 80.4616 -49.9973 -115.211 26.8778 -12.8598 21.5508 -6.8236 -17.1653 -39.4017 -2.90856 -0.381461 6.37032 -103.253 -43.8991 56.67 -27.9206 -0.356965 15.328 -7.90558 -9.69564 -60.9493 38.3843 1.73272 0.520519 16.7572 3.44997 2.21318 -1.24667 2.90516 3.89748 
268.286 92.1837 189.396 80.4395 -51.86 78.9794 -158.619 26.7483 85.8567 -80.0676 21.1379 -1.89027 86.2679 36.0869 19.017 -123.982 -61.4071 -82.7928 -170.68 37.8887 91.8601 -56.3684 15.3764 -8.04393 64.2782 -6.37817 -3.50863 46.5549 2.45179 14.3706 -0.512812 7.7435 -89.9387 11.3882 -0.991759 0.221846 -0.282399 -0.981046 0.265283 -22.8206 -1.01258 -0.0865055 -2.80794 -1.01257 -0.0865075 79.4463 -50.5562 -116.484 28.5197 -13.9382 23.5242 -6.94069 -21.7394 -35.9325 1.59327 -0.122563 4.54375 -103.045 -43.2159 56.6681 -25.6979 -4.10553 13.7386 -7.34978 -7.80768 -69.9091 35.1325 2.514 3.29137 14.8219 4.4402 2.3521 1.02256 3.97645 4.20023 
264.305 92.6653 186.386 78.4965 -52.5032 77.0984 -159.866 21.1955 86.6295 -74.579 14.1206 -1.60727 102.913 34.3401 -0.856371 -164.039 -69.2022 -109.802 -169.057 40.2198 90.6267 -53.8496 8.15395 -8.003 61.7432 -4.89832 -2.81183 44.1884 1.37312 6.15163 -0.686235 7.68298 -89.769 11.5112 -1.25731 0.58899 -0.159279 -1.23019 0.643747 -22.6991 -1.37619 0.183824 -2.68645 -1.37621 0.183805 78.717 -51.7878 -117.047 29.7455 -14.7295 26.5473 -7.0224 -21.3726 -37.5489 -5.82709 -0.560192 3.3847 -101.286 -42.6312 59.0965 -23.8737 -8.26163 14.0094 -1.59471 -1.57289 -84.5762 34.7408 1.43027 0.129832 15.527 5.67065 1.59973 0.932544 5.37033 4.41056 
259.938 92.8643 182.138 77.1871 -51.013 77.4281 -162.626 18.9624 87.839 -67.0125 20.7694 -2.42848 97.6828 37.9306 7.81758 164.316 -70.1813 -134.154 -171.792 43.8344 91.2979 -49.1606 11.1371 -6.42382 57.5037 -2.64826 -1.4566 40.3076 1.26608 13.6424 -0.868515 7.7021 -89.857 11.4746 -1.66113 0.453783 -0.195375 -1.63955 0.526461 -22.7391 -1.72069 -0.0665827 -2.72648 -1.72068 -0.0665836 78.0464 -52.3739 -117.773 31.0601 -14.4162 29.8286 -4.85997 -14.3756 -41.6885 -8.12972 -0.581597 2.19104 -101.757 -42.196 58.1731 -21.7283 -9.71014 14.5489 0.67929 -3.54106 -99.5601 36.5571 2.95137 4.25845 14.6147 6.20842 1.7304 2.74073 5.9455 4.34123 
255.429 94.3851 177.636 74.4546 -52.2755 75.7786 -163.243 16.5267 87.9276 -55.351 22.4256 -3.5817 91.3962 35.6394 12.121 95.8024 -76.7987 155.769 -172.288 44.5789 91.1374 -39.4654 6.62954 -5.78289 54.5153 -0.413696 -0.00425015 26.5241 -1.65368 17.3123 -0.733796 7.78669 -89.7742 11.3054 -1.35499 0.585397 -0.364961 -1.32789 0.64447 -22.9057 -1.46827 0.151033 -2.89305 -1.46826 0.151033 77.5631 -52.5793 -118.378 31.4519 -12.911 28.7651 -4.52554 -10.8583 -42.9248 -9.08807 -0.412478 -0.757077 -100.86 -41.2587 59.1433 -20.8417 -9.88579 14.0832 6.06375 -3.12338 -109.322 30.2666 2.61834 4.81946 14.3049 6.60417 1.28637 3.96075 6.49349 4.27273 
251.686 97.1936 173.304 69.8006 -55.3836 72.3675 -167.192 14.8842 86.2153 -41.7345 14.4876 -3.54926 77.2739 24.4022 14.8993 19.2872 -25.9725 33.012 -171.826 41.8179 90.8809 -25.71 -5.09787 -5.73154 48.2242 2.95224 2.78235 23.5104 -1.8768 14.0321 -0.357182 7.85735 -89.6843 11.1605 -0.564194 0.683458 -0.510486 -0.53357 0.707612 -23.0458 -0.743521 0.482298 -3.03316 -0.743528 0.482291 77.5308 -53.1506 -118.188 29.8427 -12.9555 25.922 -4.51581 -8.88813 -45.5063 -11.6464 -0.383414 -1.74039 -98.9586 -41.2185 62.1279 -21.3591 -6.04168 12.2 9.31993 -5.07843 -111.632 27.3885 2.022 3.56845 17.0002 6.89837 0.919114 2.68804 6.77611 4.17736 
248.02 99.106 169.04 65.2931 -56.2936 70.0175 -173.222 17.3049 85.8387 -33.5774 9.9773 -1.18946 61.2436 9.41143 15.1838 60.6357 30.6117 -9.00425 -171.551 41.1699 91.1115 -24.8506 -10.7997 -5.87848 54.627 1.74652 1.58615 35.6459 0.393238 13.4234 -0.107683 7.74684 -89.6627 11.3799 -0.0568489 0.677488 -0.291271 -0.0269578 0.679334 -22.8252 -0.25782 0.629093 -2.81255 -0.257819 0.629088 76.4037 -53.5698 -119.603 28.6996 -13.5772 25.1836 -5.0445 -6.605 -53.7381 -14.1093 -0.717625 0.774134 -97.2071 -40.0433 64.4528 -23.5266 -0.924228 11.2841 9.1277 -5.8349 -108.212 29.5142 2.07666 3.29419 15.8131 6.45802 -0.379766 5.0216 6.91224 5.17095 
243.662 99.2423 164.874 65.1525 -56.4523 70.3142 -174.106 20.5068 86.6389 -32.6688 9.53841 -0.645335 57.8325 5.70809 13.9433 66.1084 32.686 -15.4875 -172.064 40.2064 91.2853 -35.1981 -1.85465 -6.3995 62.7524 -1.09137 -0.525803 41.5668 1.43084 12.9033 0.0324302 7.67595 -89.6562 11.5208 0.225446 0.661975 -0.150309 0.254358 0.651405 -22.6841 0.0160712 0.699129 -2.67146 0.0160738 0.699122 76.8811 -52.8835 -119.219 28.149 -13.0469 23.1211 -5.60812 -4.97726 -58.1162 -16.2644 -0.848913 1.0009 -97.9302 -39.9526 63.2472 -25.1896 1.87529 12.686 9.97065 -5.0047 -101.428 27.7934 2.46555 5.16406 15.0902 6.63656 0.432811 3.76508 6.71365 3.90125 
239.007 99.0239 160.646 68.3867 -56.0118 73.1978 -172.9 24.3317 87.5822 -35.4951 9.82154 -1.17815 60.3795 7.35865 14.1186 59.2604 26.6447 -16.6748 -175.225 36.8351 91.2057 -47.216 7.22626 -5.1608 65.4464 -3.11721 -1.70383 41.4959 1.45527 13.6553 0.10265 7.67372 -89.659 11.525 0.363739 0.642123 -0.146102 0.391674 0.625496 -22.6801 0.153941 0.721752 -2.66743 0.153944 0.721748 79.5215 -51.8954 -115.842 28.1762 -13.8592 19.402 -5.49254 -3.63571 -61.4876 -19.3478 -0.940546 0.6151 -98.5981 -40.2513 62.2944 -27.4801 3.96489 14.834 10.297 -3.8539 -90.5447 29.4869 1.45483 1.03214 14.3493 6.49493 1.26258 2.74264 6.19962 2.52105 
234.441 97.6551 156.514 71.6034 -55.3123 75.8174 -173.098 29.1283 88.6163 -39.7465 14.4528 -1.27891 57.5122 4.87926 15.478 62.9152 28.4339 -19.7212 -178.088 33.1515 90.6164 -59.4673 9.90433 -4.88523 64.0172 -3.72294 -2.08106 48.0874 2.69484 13.9253 0.110071 7.67112 -89.6088 11.5298 0.401966 0.738221 -0.1413 0.434072 0.71979 -22.6749 0.161524 0.824885 -2.66225 0.161536 0.824889 78.9827 -51.5411 -116.763 26.883 -12.816 16.6062 -7.49497 -3.76492 -65.2029 -20.611 -1.14127 1.46857 -98.5176 -40.4417 62.5044 -30.2786 4.17697 16.9269 9.51165 -1.83882 -80.9828 30.4162 1.62265 1.44839 13.3969 6.2264 1.33866 3.28652 5.84015 1.2627 
230.425 96.0385 152.838 75.0396 -55.6293 78.3917 -173.497 32.0846 89.3792 -42.2089 17.8009 -1.3163 56.5226 4.01647 16.4995 61.1985 28.2137 -16.6722 -179.319 26.9637 89.2706 -67.1931 8.51622 -5.59554 62.3069 -3.77883 -2.15444 47.0822 2.86533 17.2538 0.416437 7.79137 -89.5878 11.2878 1.02069 0.718662 -0.382952 1.05134 0.673042 -22.9185 0.757535 0.992211 -2.9059 0.757505 0.992185 79.7769 -50.3032 -116.105 25.9887 -12.0176 14.2679 -9.29836 -2.53346 -70.6787 -23.1987 -1.31255 1.68547 -99.1787 -40.7144 61.5648 -33.4526 6.07099 17.692 1.12059 -3.37127 -68.0157 33.0587 2.65591 4.22748 16.8353 6.07714 0.955631 -0.825258 5.74087 2.24377 
226.83 94.5762 149.299 78.9412 -55.5374 81.2491 -174.223 33.1183 89.3418 -42.3973 18.366 -1.00008 56.7359 4.52852 18.0186 58.8996 25.3231 -19.7703 -179.592 18.8397 87.0511 -69.5819 6.07715 -6.72972 58.0444 -2.66333 -1.57627 47.4508 3.1714 19.3329 0.668342 7.80345 -89.7396 11.2646 1.45139 0.375423 -0.405627 1.46649 0.311164 -22.9456 1.27143 0.794326 -2.93293 1.27143 0.794324 83.3036 -43.7629 -113.291 29.968 -13.476 12.602 -13.6136 -1.38691 -77.0616 -24.0152 -1.20991 1.06893 -101.048 -41.8666 59.1222 -37.3772 7.48059 21.2533 0.909627 -1.45794 -57.4322 35.5014 2.49763 3.17158 15.1412 5.19792 5.0608 -0.782391 3.6285 -1.38418 
222.682 94.184 145.634 81.8681 -56.5445 82.5802 -173.786 33.372 89.2269 -39.2335 15.4467 -1.1331 54.9772 2.01246 14.6359 58.416 23.6768 -23.8556 -179.017 10.2751 84.5984 -65.9587 3.24619 -8.64869 61.2566 -2.96415 -1.73014 45.0284 2.2098 15.1117 0.900233 7.63162 -89.5868 11.6072 1.98436 0.616914 -0.0623633 2.00959 0.528943 -22.606 1.70719 1.1849 -2.59335 1.7072 1.1849 83.5905 -42.3157 -113.396 30.2014 -16.7576 12.458 -16.0374 1.22233 -83.9539 -21.5335 -1.56216 3.67713 -100.003 -41.5382 60.6164 -43.5566 8.45427 29.4282 -0.82542 -1.97116 -57.4953 37.3298 2.33778 2.34814 12.4113 4.70677 2.92963 -1.96678 3.86338 0.190341 
218.018 95.7725 141.611 82.72 -57.5222 83.495 -173.838 31.4913 91.0213 -28.7446 15.8119 -1.14974 50.8855 -2.28937 9.97134 48.6916 16.7908 -23.2354 -178.341 5.22734 85.0853 -56.9046 4.36544 -10.4003 60.1979 -2.00235 -1.09377 47.0821 3.26504 21.3329 1.28313 7.54922 -89.7111 11.7746 2.68768 0.291601 0.106452 2.69789 0.172931 -22.4481 2.47571 1.08634 -2.43546 2.47571 1.08634 83.7026 -40.5565 -113.936 29.6413 -19.0623 13.2123 -18.5907 2.60571 -88.2317 -21.2046 -1.69915 4.62824 -99.3508 -41.6859 61.7051 -48.0508 8.50574 34.794 -2.0963 -2.72849 -60.2191 37.289 2.23817 2.08133 9.04035 2.79108 5.40112 0.00902196 1.43033 -2.18757 
